<svg >
<symbol id="circle"  viewBox="0 0 8 8" xmlns="http://www.w3.org/2000/svg">

<circle cx="4" cy="4" r="3.5" fill="#4C4C4C" stroke="#ECEDED"/>
</symbol>



<symbol width="28" height="28" viewBox="0 0 28 28" id="modal-close" xmlns="http://www.w3.org/2000/svg">
<path d="M21 7L7 21"  stroke-width="2" stroke-linecap="round" stroke-linejoin="round"/>
<path d="M7 7L21 21"  stroke-width="2" stroke-linecap="round" stroke-linejoin="round"/>
</symbol>

<symbol width="24" height="24" viewBox="0 0 24 24" id="modal-person" xmlns="http://www.w3.org/2000/svg">
<path d="M20 21V19C20 17.9391 19.5786 16.9217 18.8284 16.1716C18.0783 15.4214 17.0609 15 16 15H8C6.93913 15 5.92172 15.4214 5.17157 16.1716C4.42143 16.9217 4 17.9391 4 19V21"  stroke-width="2" stroke-linecap="round" stroke-linejoin="round"/>
<path d="M12 11C14.2091 11 16 9.20914 16 7C16 4.79086 14.2091 3 12 3C9.79086 3 8 4.79086 8 7C8 9.20914 9.79086 11 12 11Z"  stroke-width="2" stroke-linecap="round" stroke-linejoin="round"/>
</symbol>

<symbol width="24" height="24" viewBox="0 0 24 24" id="modal-letter" fill="none" xmlns="http://www.w3.org/2000/svg">
<path d="M4 4H20C21.1 4 22 4.9 22 6V18C22 19.1 21.1 20 20 20H4C2.9 20 2 19.1 2 18V6C2 4.9 2.9 4 4 4Z" stroke-width="2" stroke-linecap="round" stroke-linejoin="round"/>
<path d="M22 6L12 13L2 6"  stroke-width="2" stroke-linecap="round" stroke-linejoin="round"/>
</symbol>

<symbol width="24" height="24" id="modal-phone" viewBox="0 0 24 24" fill="none" xmlns="http://www.w3.org/2000/svg">
<path d="M22.0001 16.9201V19.9201C22.0012 20.1986 21.9441 20.4743 21.8326 20.7294C21.721 20.9846 21.5574 21.2137 21.3521 21.402C21.1469 21.5902 20.9046 21.7336 20.6408 21.8228C20.377 21.912 20.0974 21.9452 19.8201 21.9201C16.7429 21.5857 13.7871 20.5342 11.1901 18.8501C8.77388 17.3148 6.72539 15.2663 5.19006 12.8501C3.50003 10.2413 2.4483 7.27109 2.12006 4.1801C2.09507 3.90356 2.12793 3.62486 2.21656 3.36172C2.30518 3.09859 2.44763 2.85679 2.63482 2.65172C2.82202 2.44665 3.04986 2.28281 3.30385 2.17062C3.55783 2.05843 3.8324 2.00036 4.11006 2.0001H7.11006C7.59536 1.99532 8.06585 2.16718 8.43382 2.48363C8.80179 2.80008 9.04213 3.23954 9.11005 3.7201C9.23668 4.68016 9.47151 5.62282 9.81006 6.5301C9.9446 6.88802 9.97372 7.27701 9.89396 7.65098C9.81421 8.02494 9.62892 8.36821 9.36005 8.6401L8.09006 9.9101C9.51361 12.4136 11.5865 14.4865 14.0901 15.9101L15.3601 14.6401C15.6319 14.3712 15.9752 14.1859 16.3492 14.1062C16.7231 14.0264 17.1121 14.0556 17.4701 14.1901C18.3773 14.5286 19.32 14.7635 20.2801 14.8901C20.7658 14.9586 21.2095 15.2033 21.5266 15.5776C21.8437 15.9519 22.0122 16.4297 22.0001 16.9201Z" stroke-width="2" stroke-linecap="round" stroke-linejoin="round"/>
</symbol>

<symbol id="modal-tick" viewBox="0 0 10 8" xmlns="http://www.w3.org/2000/svg">
<path d="M8.44558 0.255056C8.61838 0.089653 8.84834 -0.00178848 9.08693 2.65108e-05C9.32551 0.0018415 9.55407 0.0967713 9.72436 0.264784C9.89466 0.432797 9.99337 0.660752 9.99968 0.900549C10.006 1.14034 9.91939 1.37323 9.75816 1.55005L4.86357 7.70436C4.7794 7.79551 4.67782 7.86865 4.5649 7.91942C4.45198 7.97018 4.33003 7.99754 4.20636 7.99984C4.08268 8.00214 3.95981 7.97935 3.8451 7.93282C3.73038 7.88629 3.62618 7.81698 3.53872 7.72903L0.292827 4.46564C0.202435 4.38096 0.129933 4.27884 0.0796475 4.16537C0.0293621 4.05191 0.00232279 3.92942 0.000143182 3.80522C-0.00203643 3.68102 0.0206883 3.55765 0.0669613 3.44248C0.113234 3.3273 0.182108 3.22267 0.269473 3.13483C0.356838 3.047 0.460905 2.97775 0.575465 2.93123C0.690026 2.88471 0.812734 2.86186 0.936267 2.86405C1.0598 2.86624 1.18163 2.89343 1.29449 2.94398C1.40734 2.99454 1.50892 3.06743 1.59315 3.15831L4.16189 5.73967L8.42227 0.28219C8.42994 0.272694 8.43813 0.263635 8.4468 0.255056H8.44558Z" />
</symbol>


<symbol id="mobile-menu" width="28" height="28" viewBox="0 0 28 28"  xmlns="http://www.w3.org/2000/svg">
<path d="M3.5 14H24.5M3.5 7H24.5M3.5 21H24.5" stroke="#111111" stroke-width="2" stroke-linecap="round" stroke-linejoin="round"/>
</symbol>

<symbol width="20" height="20" viewBox="0 0 20 20" id="instagram-white" xmlns="http://www.w3.org/2000/svg">
<g clip-path="url(#clip0_609_2326)">
<path d="M14.1665 1.66663H5.83317C3.53198 1.66663 1.6665 3.53211 1.6665 5.83329V14.1666C1.6665 16.4678 3.53198 18.3333 5.83317 18.3333H14.1665C16.4677 18.3333 18.3332 16.4678 18.3332 14.1666V5.83329C18.3332 3.53211 16.4677 1.66663 14.1665 1.66663Z" stroke="white" stroke-width="1.5" stroke-linecap="round" stroke-linejoin="round"/>
<path d="M13.3333 9.47501C13.4361 10.1685 13.3176 10.8769 12.9947 11.4992C12.6718 12.1215 12.1609 12.6262 11.5346 12.9414C10.9083 13.2566 10.1986 13.3663 9.50641 13.255C8.81419 13.1436 8.17472 12.8167 7.67895 12.321C7.18318 11.8252 6.85636 11.1857 6.74497 10.4935C6.63359 9.8013 6.74331 9.09159 7.05852 8.46532C7.37374 7.83905 7.87841 7.32812 8.50074 7.00521C9.12307 6.68229 9.83138 6.56383 10.5249 6.66667C11.2324 6.77158 11.8873 7.10123 12.393 7.60693C12.8987 8.11263 13.2283 8.76757 13.3333 9.47501Z" stroke="white" stroke-width="1.5" stroke-linecap="round" stroke-linejoin="round"/>
<path d="M13.3333 9.47501C13.4361 10.1685 13.3176 10.8769 12.9947 11.4992C12.6718 12.1215 12.1609 12.6262 11.5346 12.9414C10.9083 13.2566 10.1986 13.3663 9.50641 13.255C8.81419 13.1436 8.17472 12.8167 7.67895 12.321C7.18318 11.8252 6.85636 11.1857 6.74497 10.4935C6.63359 9.8013 6.74331 9.09159 7.05852 8.46532C7.37374 7.83905 7.87841 7.32812 8.50074 7.00521C9.12307 6.68229 9.83138 6.56383 10.5249 6.66667C11.2324 6.77158 11.8873 7.10123 12.393 7.60693C12.8987 8.11263 13.2283 8.76757 13.3333 9.47501Z" stroke="white" stroke-width="1.5" stroke-linecap="round" stroke-linejoin="round"/>
<path d="M14.5835 5.41663H14.5935" stroke="white" stroke-width="1.5" stroke-linecap="round" stroke-linejoin="round"/>
<path d="M14.5835 5.41663H14.5935" stroke="white" stroke-width="1.5" stroke-linecap="round" stroke-linejoin="round"/>
</g>
<defs>
<clipPath id="clip0_609_2326">
<rect width="20" height="20" fill="white"/>
</clipPath>
</defs>
</symbol>

<symbol xmlns="http://www.w3.org/2000/svg" width="20" height="20" viewBox="0 0 20 20" id="facebook-white">
  <path d="M15.0002 1.66663H12.5002C11.3951 1.66663 10.3353 2.10561 9.55388 2.88701C8.77248 3.66842 8.3335 4.72822 8.3335 5.83329V8.33329H5.8335V11.6666H8.3335V18.3333H11.6668V11.6666H14.1668L15.0002 8.33329H11.6668V5.83329C11.6668 5.61228 11.7546 5.40032 11.9109 5.24404C12.0672 5.08776 12.2791 4.99996 12.5002 4.99996H15.0002V1.66663Z" stroke="white" stroke-width="1.5" stroke-linecap="round" stroke-linejoin="round"/>
</symbol>

<symbol width="20" height="20" viewBox="0 0 20 20" id="twitter-white" xmlns="http://www.w3.org/2000/svg">
<path d="M19.1668 2.49996C18.3688 3.06285 17.4853 3.49338 16.5502 3.77496C16.0483 3.19788 15.3813 2.78887 14.6394 2.60323C13.8974 2.41759 13.1164 2.46429 12.4019 2.737C11.6874 3.00972 11.0739 3.49529 10.6443 4.12805C10.2148 4.76082 9.98991 5.51024 10.0002 6.27496V7.10829C8.53569 7.14626 7.08456 6.82147 5.776 6.16283C4.46745 5.50419 2.92543 3.93586 2.0835 2.737C2.0835 2.737 -0.833171 10.8333 6.66683 14.1666C4.9506 15.3316 2.90613 15.9157 0.833496 15.8333C8.3335 20 17.5002 15.8333 17.5002 6.24996C17.4994 6.01783 17.4771 5.78629 17.4335 5.55829C18.284 4.71953 18.8842 3.66055 19.1668 2.49996Z" stroke="white" stroke-width="1.5" stroke-linecap="round" stroke-linejoin="round"/>
</symbol>


</svg>
